<?xml version="1.0" standalone="no"?>
<!DOCTYPE svg PUBLIC "-//W3C//DTD SVG 20010904//EN"
 "http://www.w3.org/TR/2001/REC-SVG-20010904/DTD/svg10.dtd">
<svg version="1.0" xmlns="http://www.w3.org/2000/svg"
 width="500.000000pt" height="500.000000pt" viewBox="0 0 500.000000 500.000000"
 preserveAspectRatio="xMidYMid meet">

<g transform="translate(0.000000,500.000000) scale(0.100000,-0.100000)"
fill="#000000" stroke="none">
<path d="M2760 4774 c-113 -18 -522 -84 -910 -144 -389 -62 -714 -117 -726
-125 -11 -7 -26 -26 -32 -42 -9 -23 -82 -617 -211 -1725 -17 -150 -15 -186 15
-219 29 -32 74 -32 275 0 107 16 511 80 899 141 388 61 717 115 732 121 15 6
34 22 43 35 11 17 45 282 126 960 116 991 115 968 70 1008 -30 27 -69 25 -281
-10z m-646 -344 c106 -40 179 -134 206 -265 33 -160 -36 -817 -111 -1050 -61
-193 -156 -281 -342 -319 -90 -19 -477 -38 -492 -25 -6 6 16 227 58 602 37
325 79 693 93 817 15 131 31 230 38 238 17 17 201 31 361 27 105 -2 141 -7
189 -25z"/>
<path d="M1828 4203 c-16 -2 -28 -8 -28 -13 0 -18 -120 -1086 -126 -1119 l-5
-34 55 7 c131 15 194 58 229 156 43 120 110 756 93 874 -7 45 -41 97 -75 115
-21 11 -108 20 -143 14z"/>
<path d="M3715 4054 c-253 -40 -470 -78 -482 -83 -13 -6 -30 -25 -38 -43 -18
-40 -129 -980 -120 -1015 10 -43 49 -73 94 -73 39 0 914 134 956 146 31 9 63
44 69 73 17 78 116 970 111 993 -9 39 -59 78 -98 77 -18 -1 -239 -34 -492 -75z
m-115 -269 c3 -22 16 -55 29 -72 24 -31 28 -33 91 -33 38 0 71 -5 78 -12 7 -7
12 -41 12 -85 0 -86 -8 -93 -96 -93 -84 0 -94 -12 -94 -119 0 -82 1 -86 32
-118 47 -49 82 -45 140 15 46 46 47 49 50 117 l3 70 85 0 85 0 3 -84 c2 -61
-1 -87 -10 -92 -7 -5 -42 -9 -78 -9 -64 0 -67 -1 -107 -42 -35 -36 -42 -51
-45 -88 l-3 -45 -60 0 -60 0 -3 45 c-2 32 -11 53 -30 73 -24 26 -30 27 -117
27 -128 0 -130 2 -130 130 0 127 3 130 123 130 114 0 122 6 122 82 0 54 -4 66
-27 90 -20 21 -36 28 -63 28 -20 0 -41 5 -48 12 -13 13 -17 100 -5 112 4 4 32
6 63 4 l55 -3 5 -40z"/>
<path d="M3097 2525 c-932 -149 -921 -147 -948 -197 -13 -25 -230 -1868 -224
-1899 7 -30 39 -64 71 -73 11 -3 319 41 685 99 365 58 781 123 924 146 253 39
261 41 288 70 15 16 27 35 27 42 0 6 49 428 109 937 97 819 108 928 96 956
-17 42 -51 64 -95 63 -19 -1 -439 -66 -933 -144z m280 -230 c164 -49 227 -187
205 -450 -19 -218 -62 -334 -157 -424 -88 -84 -209 -130 -377 -146 -43 -4 -78
-10 -78 -13 -3 -76 -71 -607 -79 -615 -8 -8 -59 -13 -136 -16 l-125 -3 0 33
c0 19 41 389 90 824 60 523 95 794 103 803 16 16 261 32 402 26 55 -2 123 -11
152 -19z"/>
<path d="M3071 2062 c-9 -7 -22 -90 -43 -272 -16 -144 -27 -264 -25 -267 10
-10 149 18 187 37 76 39 107 110 117 272 10 166 -28 223 -159 234 -34 3 -69 1
-77 -4z"/>
<path d="M1322 2245 c-277 -45 -461 -79 -476 -88 -12 -9 -28 -28 -34 -44 -6
-15 -36 -245 -67 -511 -48 -409 -55 -488 -45 -513 16 -39 46 -59 87 -59 18 0
245 34 504 75 492 78 500 80 519 131 14 37 122 983 116 1010 -4 14 -18 37 -31
50 -19 19 -34 24 -72 23 -26 -1 -252 -34 -501 -74z m-128 -220 l-6 -45 66 0
66 0 0 45 c0 25 5 45 10 45 6 0 10 -20 10 -45 l0 -45 65 0 65 0 0 45 c0 25 5
45 10 45 6 0 10 -20 10 -45 l0 -45 48 0 c26 0 53 -5 60 -12 7 -7 12 -34 12
-61 l0 -49 45 6 c41 7 45 5 45 -13 0 -25 -18 -37 -33 -22 -6 6 -21 11 -34 11
-22 0 -23 -4 -23 -65 l0 -65 45 0 c25 0 45 -4 45 -10 0 -5 -20 -10 -45 -10
l-45 0 0 -65 0 -65 45 0 c57 0 59 -18 3 -22 l-43 -3 -3 -47 c-4 -57 -27 -78
-84 -78 -38 0 -38 0 -38 -40 0 -22 -4 -40 -10 -40 -5 0 -10 18 -10 40 l0 40
-65 0 -65 0 0 -40 c0 -22 -4 -40 -10 -40 -5 0 -10 18 -10 40 l0 40 -66 0 -67
0 7 -40 c6 -38 5 -40 -20 -40 -21 0 -25 3 -19 18 23 53 20 59 -36 64 -63 6
-79 24 -79 85 0 46 -13 54 -50 31 -24 -15 -46 1 -37 26 5 13 15 15 47 10 l40
-7 0 67 0 66 -45 0 c-25 0 -45 5 -45 10 0 6 20 10 45 10 l45 0 0 65 0 65 -45
0 c-25 0 -45 5 -45 10 0 6 20 10 45 10 l45 0 0 38 c0 60 22 82 81 82 44 0 49
2 49 23 0 13 -5 28 -11 34 -15 15 -3 33 22 33 18 0 20 -4 13 -45z"/>
<path d="M1077 1954 c-4 -4 -7 -121 -7 -260 0 -220 2 -253 16 -258 9 -3 120
-6 249 -6 185 0 235 3 244 14 8 9 11 87 9 262 l-3 249 -251 3 c-138 1 -253 -1
-257 -4z m234 -54 c13 -8 25 -7 41 1 19 10 25 8 44 -15 13 -14 30 -26 39 -26
25 0 65 -46 65 -75 0 -14 4 -25 9 -25 15 0 23 -38 13 -57 -7 -12 -6 -24 4 -39
18 -27 9 -71 -17 -87 -11 -7 -19 -19 -19 -28 0 -9 -8 -23 -17 -31 -24 -21
-107 -32 -132 -19 -14 8 -22 8 -27 0 -4 -7 -24 -9 -57 -5 -63 9 -87 21 -87 46
0 10 -12 31 -26 45 -21 21 -25 32 -19 58 3 18 6 48 5 68 0 21 6 42 15 49 8 7
15 23 15 36 0 26 20 50 53 60 12 4 32 17 44 30 25 27 27 28 54 14z"/>
<path d="M1270 1851 c0 -29 -2 -30 -26 -21 -32 13 -30 13 -48 -6 -9 -8 -16
-28 -16 -44 0 -16 -7 -30 -15 -34 -20 -7 -19 -33 3 -45 16 -9 15 -11 -5 -31
-30 -27 -29 -56 2 -76 15 -10 25 -26 25 -39 0 -24 30 -42 49 -30 5 3 12 1 16
-5 9 -15 41 -12 55 5 18 22 4 65 -21 65 -11 0 -22 -7 -25 -15 -8 -19 -24 -19
-24 0 0 20 44 47 64 39 15 -6 16 6 14 127 -3 130 -4 134 -25 137 -20 3 -23 -1
-23 -27z m-4 -97 c1 -16 5 -37 9 -46 8 -19 -9 -25 -20 -7 -4 5 -18 14 -31 19
-30 12 -31 27 -1 26 17 -1 21 4 19 22 -1 15 2 22 10 20 7 -3 14 -18 14 -34z"/>
<path d="M1344 1867 c-3 -8 -4 -36 -2 -63 2 -39 7 -50 22 -52 10 -2 23 3 28
12 10 18 28 22 28 6 0 -20 -42 -52 -61 -47 -18 5 -19 -1 -19 -93 0 -77 3 -100
16 -111 12 -10 20 -10 34 -1 11 6 26 9 35 6 20 -8 45 13 45 37 0 10 9 23 20
29 25 13 26 56 3 82 -15 17 -15 19 1 31 19 14 12 47 -10 47 -10 0 -13 7 -8 24
7 30 -29 71 -54 61 -31 -12 -36 -10 -36 15 -1 28 -33 41 -42 17z m119 -216 c4
-1 7 -7 7 -15 0 -9 -7 -12 -20 -9 -12 3 -20 2 -19 -3 1 -5 1 -17 0 -26 -2 -28
-21 -21 -21 7 0 20 -5 25 -25 25 -26 0 -34 15 -13 22 11 4 61 3 91 -1z"/>
</g>
</svg>
