<?xml version="1.0" standalone="no"?>
<!DOCTYPE svg PUBLIC "-//W3C//DTD SVG 20010904//EN"
 "http://www.w3.org/TR/2001/REC-SVG-20010904/DTD/svg10.dtd">
<svg version="1.0" xmlns="http://www.w3.org/2000/svg"
 width="500.000000pt" height="250.000000pt" viewBox="0 0 500.000000 250.000000"
 preserveAspectRatio="xMidYMid meet">

<g transform="translate(0.000000,250.000000) scale(0.100000,-0.100000)"
fill="#000000" stroke="none">
<path d="M2133 2341 c-40 -3 -76 -10 -81 -16 -5 -5 -30 -201 -56 -435 -26
-234 -50 -443 -53 -464 l-6 -39 139 6 c273 11 326 61 375 350 11 67 23 194 26
282 5 147 4 165 -14 206 -26 59 -75 96 -143 109 -55 10 -69 11 -187 1z m167
-156 c29 -27 33 -71 20 -222 -16 -187 -36 -317 -55 -353 -18 -35 -56 -57 -115
-66 l-42 -7 6 39 c3 21 20 167 37 324 17 157 32 291 35 299 6 19 89 9 114 -14z"/>
<path d="M1060 2169 c-96 -16 -278 -45 -405 -64 -143 -22 -234 -41 -240 -49
-6 -8 -32 -199 -59 -426 -44 -375 -47 -413 -33 -428 15 -14 52 -10 423 49 224
35 413 68 420 74 10 7 29 133 63 420 49 414 50 444 15 451 -5 1 -88 -11 -184
-27z m-367 -140 c11 -6 17 -21 17 -41 0 -21 9 -42 27 -60 23 -24 34 -28 83
-28 31 0 61 -5 68 -12 16 -16 16 -130 0 -146 -7 -7 -37 -12 -67 -12 -80 0 -91
-14 -91 -115 0 -76 2 -83 28 -108 40 -38 69 -34 119 15 41 40 43 45 43 99 0
73 10 81 97 77 l68 -3 0 -80 0 -80 -65 -3 c-61 -3 -68 -5 -107 -45 -36 -34
-43 -48 -43 -80 l0 -38 -57 3 -58 3 -3 35 c-2 21 -14 46 -30 63 -24 25 -31 27
-108 27 -109 0 -114 5 -114 119 0 54 4 91 12 99 8 8 45 12 100 12 102 0 108 5
108 93 0 66 -24 94 -85 99 -40 3 -40 3 -43 48 -2 32 1 48 13 56 19 14 63 15
88 3z"/>
<path d="M2806 2120 c-72 -22 -140 -99 -170 -195 -40 -131 -46 -337 -11 -422
38 -94 133 -135 268 -115 39 6 76 17 82 24 18 18 27 126 12 131 -7 2 -29 -2
-51 -9 -21 -8 -60 -14 -86 -14 -41 0 -52 4 -73 30 -24 28 -47 124 -33 138 4 3
74 8 157 10 131 4 151 7 159 22 6 10 11 72 12 137 2 127 -10 173 -55 222 -43
46 -133 64 -211 41z m111 -150 c8 -15 12 -52 11 -90 l-3 -65 -88 -3 c-81 -3
-88 -1 -84 15 3 10 9 34 12 53 9 44 40 106 57 114 7 2 29 4 48 3 26 -2 38 -8
47 -27z"/>
<path d="M3265 2121 c-49 -6 -50 -7 -47 -36 5 -43 81 -613 88 -657 l6 -38 68
0 c42 0 71 5 77 13 20 25 255 709 247 717 -5 5 -40 6 -77 3 -58 -5 -70 -9 -76
-27 -5 -12 -37 -129 -72 -260 -73 -276 -67 -279 -93 44 -18 219 -25 251 -53
248 -10 0 -40 -4 -68 -7z"/>
<path d="M1605 1880 c-60 -10 -143 -24 -183 -31 -41 -7 -79 -18 -86 -25 -7 -6
-18 -63 -25 -126 -7 -62 -18 -160 -25 -216 -19 -158 -32 -152 234 -111 149 23
219 38 231 50 18 18 53 282 54 404 l0 70 -45 2 c-25 0 -94 -7 -155 -17z"/>
<path d="M3167 1242 c-48 -50 -30 -133 30 -145 66 -12 132 51 118 114 -14 63
-100 81 -148 31z"/>
<path d="M1270 1199 c-229 -37 -380 -65 -389 -73 -14 -15 -115 -818 -105 -848
2 -9 11 -18 18 -21 19 -8 827 120 839 132 6 6 33 198 59 426 39 326 47 419 37
431 -17 21 -50 18 -459 -47z m-106 -129 c-1 -8 -3 -24 -5 -35 -4 -18 2 -20 54
-23 l57 -3 0 41 c0 22 5 40 10 40 6 0 10 -18 10 -40 l0 -40 60 0 60 0 0 40 c0
22 5 40 10 40 6 0 10 -18 10 -40 l0 -40 43 0 c54 0 67 -13 67 -68 l0 -45 40 7
c36 6 40 4 40 -15 0 -19 -4 -20 -40 -14 l-40 7 0 -61 0 -61 40 0 c22 0 40 -4
40 -10 0 -5 -18 -10 -40 -10 l-40 0 0 -55 0 -55 34 0 c48 0 55 -18 9 -22 -37
-3 -38 -4 -41 -45 -4 -50 -29 -73 -79 -73 -31 0 -33 -2 -33 -35 0 -19 -4 -35
-10 -35 -5 0 -10 16 -10 35 l0 35 -60 0 -60 0 0 -35 c0 -19 -4 -35 -10 -35 -5
0 -10 16 -10 35 l0 36 -57 -3 c-60 -3 -65 -9 -48 -50 6 -15 2 -18 -20 -18 -22
0 -26 3 -20 18 16 38 11 46 -34 53 -51 7 -71 28 -71 75 0 36 -15 46 -44 32
-22 -12 -41 3 -33 26 4 11 15 13 41 9 l36 -6 0 57 0 56 -40 0 c-22 0 -40 5
-40 10 0 6 18 10 40 10 l40 0 0 60 0 60 -40 0 c-22 0 -40 5 -40 10 0 6 17 10
39 10 38 0 38 0 44 46 6 54 17 64 75 64 47 0 46 -1 32 35 -6 15 -7 31 -4 36 9
15 39 5 38 -11z"/>
<path d="M1046 974 c-12 -31 -7 -439 6 -452 14 -14 434 -17 456 -4 9 7 12 61
10 238 l-3 229 -231 3 c-205 2 -232 1 -238 -14z m305 -55 c5 -11 18 -19 29
-19 22 0 60 -45 60 -71 0 -10 5 -21 10 -24 6 -4 10 -21 10 -38 0 -18 2 -46 6
-64 5 -24 1 -36 -15 -52 -12 -12 -21 -27 -21 -34 0 -36 -92 -67 -132 -46 -14
7 -23 7 -33 -1 -8 -7 -28 -9 -52 -4 -52 9 -70 20 -79 46 -4 13 -16 35 -27 50
-17 23 -19 32 -9 53 6 14 9 38 6 53 -4 19 -1 32 10 41 9 8 16 24 16 37 0 24
33 54 60 54 8 0 20 8 27 19 9 14 24 18 68 18 44 0 58 -4 66 -18z"/>
<path d="M1230 895 c0 -23 -3 -26 -22 -22 -33 9 -58 -10 -58 -42 0 -16 -7 -31
-15 -35 -20 -7 -19 -32 2 -40 14 -6 14 -9 -5 -27 -28 -26 -28 -44 2 -70 14
-12 22 -27 20 -34 -6 -15 22 -39 35 -30 6 3 19 1 30 -5 31 -16 53 -2 49 33 -4
36 -19 44 -42 21 -24 -23 -33 -8 -10 17 10 11 26 18 36 15 17 -4 18 4 16 117
-3 107 -5 122 -20 125 -14 3 -18 -3 -18 -23z m-4 -92 c1 -16 4 -35 8 -41 3 -6
2 -13 -4 -17 -5 -3 -10 -1 -10 5 0 6 -13 16 -30 21 -35 13 -40 30 -7 26 18 -2
22 2 19 21 -1 15 2 22 10 20 7 -3 13 -18 14 -35z"/>
<path d="M1294 907 c-3 -8 -4 -34 -2 -58 3 -49 29 -64 54 -32 14 17 14 17 12
-7 -2 -20 -9 -26 -35 -28 l-33 -3 0 -88 c0 -95 12 -121 47 -105 10 4 25 9 33
9 8 1 21 3 28 4 6 0 12 11 12 24 0 12 9 28 20 35 24 14 27 60 5 68 -17 7 -21
34 -5 34 16 0 12 37 -5 44 -8 3 -12 12 -9 21 10 26 -25 57 -58 50 -25 -6 -28
-4 -26 16 3 27 -29 40 -38 16z m116 -207 c0 -5 -6 -10 -14 -10 -7 0 -16 -9
-19 -20 -3 -11 -10 -20 -15 -20 -6 0 -8 9 -5 20 4 16 0 20 -21 20 -16 0 -25 4
-21 10 3 6 26 10 51 10 24 0 44 -4 44 -10z"/>
<path d="M2036 1240 c-83 -4 -111 -9 -117 -20 -7 -12 -109 -869 -109 -915 0
-12 15 -15 70 -15 87 0 83 -7 105 199 9 85 18 158 20 162 3 3 34 9 71 12 85 6
166 47 210 104 44 58 68 165 62 283 -4 77 -7 92 -31 124 -15 20 -37 41 -49 47
-33 18 -114 24 -232 19z m108 -144 c44 -18 60 -64 51 -143 -9 -69 -30 -120
-57 -134 -11 -6 -42 -14 -69 -18 -41 -7 -49 -6 -49 8 0 28 30 275 35 289 6 16
48 15 89 -2z"/>
<path d="M4156 1162 c-3 -5 -8 -29 -11 -53 -12 -88 -13 -89 -49 -89 -33 0 -35
-2 -41 -42 -3 -24 -9 -51 -11 -60 -5 -15 1 -18 36 -18 40 0 41 -1 36 -27 -16
-84 -39 -301 -40 -388 -1 -112 9 -140 66 -175 40 -24 124 -35 185 -24 l48 9 9
63 c5 34 6 65 3 68 -3 3 -27 1 -54 -4 -67 -12 -101 1 -108 41 -3 18 3 118 15
222 11 105 20 196 20 203 0 8 20 12 68 12 37 0 72 4 79 8 7 4 15 33 19 65 l7
57 -78 0 -77 0 7 48 c13 94 18 87 -57 90 -36 2 -69 -1 -72 -6z"/>
<path d="M497 1076 c-117 -19 -202 -37 -206 -45 -11 -17 -61 -439 -55 -456 3
-8 14 -17 25 -20 31 -10 431 57 449 75 20 20 68 434 53 459 -15 24 -50 23
-266 -13z"/>
<path d="M2613 1006 c-82 -39 -121 -112 -148 -281 -17 -105 -19 -254 -5 -307
13 -44 51 -93 89 -112 68 -36 183 -27 253 19 77 51 130 227 131 440 1 114 -11
164 -51 209 -52 58 -179 73 -269 32z m130 -105 c39 -15 51 -60 43 -160 -8
-112 -31 -243 -48 -278 -33 -67 -104 -79 -133 -22 -19 35 -19 84 0 221 19 143
31 186 65 220 31 31 37 32 73 19z"/>
<path d="M3193 1023 c-45 -3 -54 -7 -58 -26 -7 -34 -75 -649 -75 -680 l0 -28
73 3 72 3 37 325 c21 179 37 343 35 365 -2 44 -2 44 -84 38z"/>
<path d="M3528 1023 l-56 -4 -6 -37 c-8 -51 -76 -657 -76 -677 0 -12 13 -15
69 -15 39 0 72 4 75 8 2 4 19 136 37 292 17 157 36 289 40 294 16 18 105 12
128 -8 28 -25 27 -58 -4 -321 -14 -116 -25 -223 -25 -238 l0 -28 73 3 72 3 32
270 c20 162 30 291 27 322 -6 58 -36 111 -74 130 -49 25 -127 11 -187 -33 -17
-13 -34 -24 -36 -24 -3 0 -4 14 -3 32 1 36 1 36 -86 31z"/>
<path d="M4654 1019 c-42 -12 -101 -79 -110 -124 -13 -71 1 -131 60 -251 87
-178 76 -228 -50 -222 l-58 3 -8 -55 c-5 -30 -6 -60 -4 -66 7 -19 125 -28 190
-14 105 22 152 88 144 200 -3 45 -17 84 -60 172 -68 137 -77 179 -48 208 15
15 33 20 74 20 l53 0 7 61 c3 34 3 65 0 70 -7 11 -149 10 -190 -2z"/>
</g>
</svg>
